
<svg xmlns="http://www.w3.org/2000/svg" xmlns:xlink="http://www.w3.org/1999/xlink" viewBox="0 0 32 32" width="32" height="32" fill="none">
  <svg xmlns="http://www.w3.org/2000/svg" viewBox="0 0 640 512" width="32" height="32" fill="#030303" x="0" y="0" opacity="100%">
    <path d="M57.89 397.2c-6.262-8.616-16.02-13.19-25.92-13.19c-23.33 0-31.98 20.68-31.98 32.03c0 6.522 1.987 13.1 6.115 18.78l46.52 64C58.89 507.4 68.64 512 78.55 512c23.29 0 31.97-20.66 31.97-32.03c0-6.522-1.988-13.1-6.115-18.78L57.89 397.2zM496.1 352c-44.13 0-79.72 35.75-79.72 80s35.59 80 79.72 80s79.91-35.75 79.91-80S540.2 352 496.1 352zM640 99.38c0-13.61-4.133-27.34-12.72-39.2l-23.63-32.5c-13.44-18.5-33.77-27.68-54.12-27.68c-13.89 0-27.79 4.281-39.51 12.8L307.8 159.7C262.2 192.8 220.4 230.9 183.4 273.4c-24.22 27.88-59.18 63.99-103.5 99.63l56.34 77.52c53.79-35.39 99.15-55.3 127.1-67.27c51.88-22 101.3-49.87 146.9-82.1l202.3-146.7C630.5 140.4 640 120 640 99.38z"></path>
  </svg>
  <defs>
    <filter id="filter_dshadow_0_0_0_00000014" color-interpolation-filters="sRGB" filterUnits="userSpaceOnUse">
      <feFlood flood-opacity="0" result="bg-fix"></feFlood>
      <feColorMatrix in="SourceAlpha" type="matrix" values="0 0 0 0 0 0 0 0 0 0 0 0 0 0 0 0 0 0 127 0" result="alpha"></feColorMatrix>
      <feOffset dx="0" dy="0"></feOffset>
      <feGaussianBlur stdDeviation="0"></feGaussianBlur>
      <feComposite in2="alpha" operator="out"></feComposite>
      <feColorMatrix type="matrix" values="0 0 0 0 0 0 0 0 0 0 0 0 0 0 0 0 0 0 0.08 0"></feColorMatrix>
      <feBlend mode="normal" in2="bg-fix" result="bg-fix-filter_dshadow_0_0_0_00000014"></feBlend>
      <feBlend in="SourceGraphic" in2="bg-fix-filter_dshadow_0_0_0_00000014" result="shape"></feBlend>
    </filter>
  </defs>
</svg>